PathFileType	4	(X/Y/Z)	RBDS015\RBDS015runT45.trc
DataRate	CameraRate	NumFrames	NumMarkers	Units	OrigDataRate	OrigDataStartFrame	OrigNumFrames
150.000000	150.000000	5	33	mm	150.000000	1125	4500
Frame#	Time	L.ASIS			L.Heel.Bottom			L.Heel.Lateral			L.Heel.Top			L.Iliac.Crest			L.MT1			L.MT5			L.PSIS			L.Shank.Bottom.Lateral			L.Shank.Bottom.Medial			L.Shank.Top.Lateral			L.Shank.Top.Medial			L.Thigh.Bottom.Lateral			L.Thigh.Bottom.Medial			L.Thigh.Top.Lateral			L.Thigh.Top.Medial			R.ASIS			R.ASY			R.Heel.Bottom			R.Heel.Lateral			R.Heel.Top			R.Iliac.Crest			R.MT1			R.MT5			R.PSIS			R.Shank.Bottom.Lateral			R.Shank.Bottom.Medial			R.Shank.Top.Lateral			R.Shank.Top.Medial			R.Thigh.Bottom.Lateral			R.Thigh.Bottom.Medial			R.Thigh.Top.Lateral			R.Thigh.Top.Medial			
		X1	Y1	Z1	X2	Y2	Z2	X3	Y3	Z3	X4	Y4	Z4	X5	Y5	Z5	X6	Y6	Z6	X7	Y7	Z7	X8	Y8	Z8	X9	Y9	Z9	X10	Y10	Z10	X11	Y11	Z11	X12	Y12	Z12	X13	Y13	Z13	X14	Y14	Z14	X15	Y15	Z15	X16	Y16	Z16	X17	Y17	Z17	X18	Y18	Z18	X19	Y19	Z19	X20	Y20	Z20	X21	Y21	Z21	X22	Y22	Z22	X23	Y23	Z23	X24	Y24	Z24	X25	Y25	Z25	X26	Y26	Z26	X27	Y27	Z27	X28	Y28	Z28	X29	Y29	Z29	X30	Y30	Z30	X31	Y31	Z31	X32	Y32	Z32	X33	Y33	Z33	

1126	7.500000000000001	2225.590459141067	983.0615316175248	924.6706470076416	2058.508952284918	35.99732211853853	1034.073599420061	2081.870385647875	57.17859403479275	993.4544600404313	2073.481892079913	75.3959460672672	1041.172480169734	2144.112504525475	1053.196922927763	895.2418060433963	2273.160736302641	42.42663293279249	1056.438821089854	2231.764287040123	40.90482251626372	947.3171530293104	2061.49014996942	1032.120928331373	1030.478509596316	2180.744866842229	176.5555056226	966.1704612587613	2137.125195459695	195.1640244715327	985.4216433056702	2206.711442441414	250.2748996522515	944.1969283133931	2163.413613055242	273.1579678881297	965.1072208099476	2263.457649565441	627.7615891205121	894.4734729378932	2210.852340377301	604.0392992103091	930.2476612176521	2212.324000463083	724.6645013596282	880.624919753475	2157.527033085563	699.6250398963332	920.5722998930125	2267.351357765814	963.6763504696002	1143.733961293394	1783.254624633688	324.7497178892443	1129.982302167146	1744.50204037782	512.7801211623961	1121.043085844654	1760.336145314575	484.7193573651135	1164.56876324302	1788.890229544504	498.6223836316603	1124.197118334267	2216.227428787558	1055.852490020325	1198.490901535322	1735.810868940538	301.6973930090822	1082.949571453464	1728.809411210865	341.257833051838	1194.831454676963	2080.992253074733	1029.906083124343	1119.719823084293	1894.01649389917	434.799495794531	1180.504824563495	1889.990270182923	486.5415281841866	1160.701139800787	1973.445629320769	447.9546447858817	1194.700298286063	1968.083308454522	497.7934806588975	1174.948360020712	2230.049322276587	617.0842933708169	1227.14209269022	2167.33201142636	601.1844322648757	1192.974637541653	2198.575266367962	722.1023897390066	1231.243542519996	2138.28399940781	706.9863773107912	1200.400846886305	
1127	7.506666666666667	2224.092375298115	981.2263036754927	924.6494982004695	2028.136868688077	36.154927757162	1034.143394685362	2051.398967204027	57.5285576164292	993.4226156855627	2042.789969013946	75.66432261311813	1041.113064686571	2143.454134963648	1052.546293217891	894.8502626940292	2242.349196680262	43.10444187364168	1056.391137851846	2201.129192264146	41.45964037684269	947.39552219597	2060.017632088061	1032.698135675711	1029.83600740566	2153.257533169497	175.4929966322173	966.5308148421217	2110.305153943938	195.5644804086908	985.6947599683047	2181.766379195562	248.2919130440373	944.8320627770341	2139.230233045467	272.6162018026564	965.570225503303	2251.573119086933	623.659027023184	895.3170736540704	2197.979526069735	601.8314211954938	930.8454716476482	2203.833884674132	722.2734381447608	881.2325763947322	2148.1340921868	699.2715974892394	921.1120807278132	2264.613090098863	961.9468079837828	1144.675720258969	1806.264838041767	314.7416925131751	1129.248002618681	1759.303866671478	500.8756351394849	1122.309580067053	1776.684568172084	473.1761437311318	1165.319066109945	1804.220845910756	488.6301766677702	1124.943342604472	2212.022909940767	1055.222872079257	1199.149368888752	1759.566880642307	290.1423215897235	1082.180800373777	1751.612538494903	328.2477931646951	1194.489328497849	2078.568069619284	1030.438584842935	1118.96251410621	1912.820014960184	427.6531579533743	1180.393024233717	1907.245052301947	479.541815882773	1161.280277337119	1991.862648118848	442.9382557075717	1194.619387803614	1984.982478651334	492.8559721526955	1175.420584231962	2241.458771389425	619.6480115185691	1228.150933654399	2179.167396448566	600.6733444826731	1194.739045479382	2205.600468010827	723.1685631256996	1231.803805719118	2145.478605147759	705.0854862118225	1202.296317011053	
1128	7.513333333333334	2223.111786397788	980.0201905404082	924.5902909692118	1997.581826942871	36.44396744150805	1034.151039096886	2020.767980566875	57.87175070347332	993.2634166582073	2011.905280587893	76.10049779343284	1040.858137854431	2143.200161002822	1053.020998779176	894.47441694644	2211.457017736071	43.56801663822744	1056.32503150539	2170.434718959836	41.73429035592346	947.4167909524461	2058.892564688083	1033.851349751157	1028.731528095069	2125.254959307141	174.5708350438594	966.7405192539303	2082.958474575718	195.9421109037431	985.825644237584	2156.036180644045	246.4591402768814	945.3484440137931	2114.21973548478	272.0682329287723	965.9122004346106	2238.91525535031	619.9216633498847	896.1348260158234	2184.221353931723	600.1565487550411	931.2390862691083	2194.943891953516	720.291214040825	881.7989970099474	2138.23134638291	699.5074151358954	921.4575861725799	2262.079942125343	961.5904468507464	1145.632513213359	1830.139310452611	303.8473302137424	1128.325257625041	1774.011347265984	487.30621740986	1122.895956236233	1792.997203198257	460.2120897078002	1165.400864994449	1819.430023466358	477.3307175864622	1125.06978054145	2207.747433155348	1055.919818874428	1199.603958730093	1784.59274604492	277.3560188662796	1081.154243361736	1775.192405202579	314.1477783731409	1193.755043405847	2076.374838201736	1031.632631702705	1117.792382481399	1931.570493246211	420.2076382687849	1179.988915417143	1924.18286890883	472.0422577220293	1161.292749162403	2010.031380677477	438.1463779198218	1194.234585211058	2001.379909020196	487.9442076730562	1175.348384941158	2252.400065545797	623.5214627364277	1228.938281344396	2190.741780597274	601.5025173169929	1196.160625051428	2212.250121330434	725.3592414560538	1232.109752030257	2152.503717575416	704.3526823524736	1203.789630939247	
1129	7.52	2222.673458321517	979.5146197349271	924.5444887125853	1966.874109330286	37.109098980289	1034.129122194431	1990.034488205356	58.44171819518128	993.0268313667491	1980.927956690545	76.93059813730021	1040.470485347854	2143.444161828335	1054.452054602415	894.1607383594047	2180.517277237244	43.76881235584338	1056.291562468802	2139.701578715171	41.77446277443986	947.4162910318048	2058.139297179503	1035.505515407973	1027.210737796269	2096.934500049458	174.0175924432606	966.8468061188789	2055.257697895961	196.5391822952526	985.8477036886239	2129.745978187172	245.0269995755576	945.7669862683749	2088.586437780051	271.7762409440286	966.1468966332517	2225.672822017349	616.7282899117797	896.8950596151747	2169.819771661143	599.1714762289674	931.421305548843	2185.794487117787	718.827270617036	882.3028489662912	2128.003106646944	700.4131991431959	921.5945405046978	2259.807541349074	962.6247671403725	1146.570052880114	1854.830930566629	292.2183515985952	1127.239574831463	1788.749222733735	472.1256745434123	1122.695403743598	1809.351106495207	445.92185657864	1164.756352436379	1834.601085200064	464.7578988312355	1124.491821904639	2203.4895912746	1057.813456141244	1199.851035577564	1810.876966112691	263.5183202846719	1079.923972573573	1799.545547895531	299.1705739129455	1192.655718855912	2074.447714381685	1033.411420634718	1116.255075220856	1950.195985359937	412.5049904817374	1179.266514770872	1940.77423180102	464.0490420056361	1160.677383189672	2027.833154115215	433.5807498926909	1193.540779931782	2017.206881346531	483.0232138703221	1174.689040443671	2262.747888708926	628.5527145343444	1229.507209495385	2201.901215821794	603.5919276865361	1197.235260909474	2218.449638017683	728.5578431681963	1232.21339717791	2159.273463466674	704.7362765250364	1204.868642776883	
1130	7.526666666666667	2222.77554405162	979.7809565398741	924.555201074967	1936.081633739964	38.41453144604038	1034.092217201919	1959.289653515874	59.48413572047856	992.7443549598775	1949.990675184746	78.39429500055304	1039.98946898203	2144.267455188807	1056.653739687602	893.9340353507209	2149.560498855371	43.7134973955468	1056.327022377529	2108.96095155109	41.64984583269019	947.4214538259613	2057.774110985655	1037.591129779145	1025.347328684174	2068.48691501261	174.0689860038518	966.8797593842932	2027.382204133678	197.6032579920859	985.7954793647397	2103.110927487574	244.249018131884	946.1004582441831	2062.538205603839	272.0035287393955	966.2966937698511	2212.013951417663	614.2440969239633	897.5846679544445	2155.000527089835	599.0275999781159	931.4183995587169	2176.510437493098	717.9832052967989	882.7366572252158	2117.623629305893	702.0701966609519	921.5364705657227	2257.846447372257	964.9797411889076	1147.449959230817	1880.301242872714	280.0137197081689	1126.011717875287	1803.688107831372	455.4259814076902	1121.640048268288	1825.863521075862	430.4193506909102	1163.360744349116	1849.86196253649	450.9644634157117	1123.160505541943	2199.334096788136	1060.729936132813	1199.894984130099	1838.397349883126	248.8400823469181	1078.542818690602	1824.675696034325	283.5317583647432	1191.226550205963	2072.819874731865	1035.705991837768	1114.421765051916	1968.667660937624	404.5614313119016	1178.205528690415	1957.036775326793	455.5546502535291	1159.406521614968	2045.194071622756	429.200038087185	1192.538141407228	2032.442885165546	478.0270202378634	1173.43007655219	2272.418707398725	634.5602740274472	1229.867427617147	2212.529771412355	606.8333491952881	1197.958902817075	2224.161675013865	732.6256459813912	1232.176110775752	2165.731740013944	706.1618991920949	1205.534932629023	
